<mxfile host="app.diagrams.net" modified="2024-01-30T03:21:10.730Z" agent="Mozilla/5.0 (Windows NT 10.0; Win64; x64) AppleWebKit/537.36 (KHTML, like Gecko) Chrome/121.0.0.0 Safari/537.36" etag="T8BwGij0TtVk9SFZNkC2" version="23.0.2" type="device">
  <diagram id="C5RBs43oDa-KdzZeNtuy" name="Page-1">
    <mxGraphModel dx="794" dy="724" grid="1" gridSize="10" guides="1" tooltips="1" connect="1" arrows="1" fold="1" page="1" pageScale="1" pageWidth="827" pageHeight="1169" math="0" shadow="0">
      <root>
        <mxCell id="WIyWlLk6GJQsqaUBKTNV-0" />
        <mxCell id="WIyWlLk6GJQsqaUBKTNV-1" parent="WIyWlLk6GJQsqaUBKTNV-0" />
        <mxCell id="ZzNQg0xLi2cPM94xEe_J-0" value="시작" style="ellipse;whiteSpace=wrap;html=1;" vertex="1" parent="WIyWlLk6GJQsqaUBKTNV-1">
          <mxGeometry x="44" y="40" width="240" height="80" as="geometry" />
        </mxCell>
        <mxCell id="ZzNQg0xLi2cPM94xEe_J-1" value="종료" style="ellipse;whiteSpace=wrap;html=1;" vertex="1" parent="WIyWlLk6GJQsqaUBKTNV-1">
          <mxGeometry x="44" y="570" width="240" height="80" as="geometry" />
        </mxCell>
        <mxCell id="ZzNQg0xLi2cPM94xEe_J-2" value="h : 산의 높이를 기억할 변수&lt;br&gt;t : 초을 기억할 변수&lt;br&gt;&amp;nbsp;a : A 의 고도를 기억할 변수&lt;br&gt;b : B 의 고도를 기억할 변수" style="shape=hexagon;perimeter=hexagonPerimeter2;whiteSpace=wrap;html=1;fixedSize=1;" vertex="1" parent="WIyWlLk6GJQsqaUBKTNV-1">
          <mxGeometry x="44" y="140" width="240" height="80" as="geometry" />
        </mxCell>
        <mxCell id="ZzNQg0xLi2cPM94xEe_J-3" value="h = 1753&lt;br&gt;t = 0&lt;br&gt;a = 0&lt;br&gt;b = 1753" style="shape=parallelogram;perimeter=parallelogramPerimeter;whiteSpace=wrap;html=1;fixedSize=1;size=0;" vertex="1" parent="WIyWlLk6GJQsqaUBKTNV-1">
          <mxGeometry x="44" y="240" width="240" height="60" as="geometry" />
        </mxCell>
        <mxCell id="ZzNQg0xLi2cPM94xEe_J-4" value="a &amp;gt;= b" style="rhombus;whiteSpace=wrap;html=1;" vertex="1" parent="WIyWlLk6GJQsqaUBKTNV-1">
          <mxGeometry x="44" y="390" width="240" height="80" as="geometry" />
        </mxCell>
        <mxCell id="ZzNQg0xLi2cPM94xEe_J-5" value="print t" style="shape=parallelogram;perimeter=parallelogramPerimeter;whiteSpace=wrap;html=1;fixedSize=1;" vertex="1" parent="WIyWlLk6GJQsqaUBKTNV-1">
          <mxGeometry x="44" y="490" width="240" height="60" as="geometry" />
        </mxCell>
        <mxCell id="ZzNQg0xLi2cPM94xEe_J-6" value="" style="endArrow=classic;html=1;rounded=0;exitX=0.5;exitY=1;exitDx=0;exitDy=0;entryX=0.5;entryY=0;entryDx=0;entryDy=0;" edge="1" parent="WIyWlLk6GJQsqaUBKTNV-1" source="ZzNQg0xLi2cPM94xEe_J-0" target="ZzNQg0xLi2cPM94xEe_J-2">
          <mxGeometry width="50" height="50" relative="1" as="geometry">
            <mxPoint x="344" y="400" as="sourcePoint" />
            <mxPoint x="394" y="350" as="targetPoint" />
          </mxGeometry>
        </mxCell>
        <mxCell id="ZzNQg0xLi2cPM94xEe_J-7" value="" style="endArrow=classic;html=1;rounded=0;exitX=0.5;exitY=1;exitDx=0;exitDy=0;" edge="1" parent="WIyWlLk6GJQsqaUBKTNV-1" source="ZzNQg0xLi2cPM94xEe_J-2" target="ZzNQg0xLi2cPM94xEe_J-3">
          <mxGeometry width="50" height="50" relative="1" as="geometry">
            <mxPoint x="344" y="400" as="sourcePoint" />
            <mxPoint x="394" y="350" as="targetPoint" />
          </mxGeometry>
        </mxCell>
        <mxCell id="ZzNQg0xLi2cPM94xEe_J-8" value="" style="endArrow=classic;html=1;rounded=0;exitX=0.5;exitY=1;exitDx=0;exitDy=0;entryX=0.5;entryY=0;entryDx=0;entryDy=0;" edge="1" parent="WIyWlLk6GJQsqaUBKTNV-1" source="ZzNQg0xLi2cPM94xEe_J-3" target="ZzNQg0xLi2cPM94xEe_J-4">
          <mxGeometry width="50" height="50" relative="1" as="geometry">
            <mxPoint x="344" y="400" as="sourcePoint" />
            <mxPoint x="394" y="350" as="targetPoint" />
          </mxGeometry>
        </mxCell>
        <mxCell id="ZzNQg0xLi2cPM94xEe_J-9" value="" style="endArrow=classic;html=1;rounded=0;exitX=0.5;exitY=1;exitDx=0;exitDy=0;entryX=0.5;entryY=0;entryDx=0;entryDy=0;" edge="1" parent="WIyWlLk6GJQsqaUBKTNV-1" source="ZzNQg0xLi2cPM94xEe_J-4" target="ZzNQg0xLi2cPM94xEe_J-5">
          <mxGeometry width="50" height="50" relative="1" as="geometry">
            <mxPoint x="344" y="400" as="sourcePoint" />
            <mxPoint x="394" y="350" as="targetPoint" />
          </mxGeometry>
        </mxCell>
        <mxCell id="ZzNQg0xLi2cPM94xEe_J-10" value="" style="endArrow=classic;html=1;rounded=0;exitX=0.5;exitY=1;exitDx=0;exitDy=0;entryX=0.5;entryY=0;entryDx=0;entryDy=0;" edge="1" parent="WIyWlLk6GJQsqaUBKTNV-1" source="ZzNQg0xLi2cPM94xEe_J-5" target="ZzNQg0xLi2cPM94xEe_J-1">
          <mxGeometry width="50" height="50" relative="1" as="geometry">
            <mxPoint x="344" y="400" as="sourcePoint" />
            <mxPoint x="394" y="350" as="targetPoint" />
          </mxGeometry>
        </mxCell>
        <mxCell id="ZzNQg0xLi2cPM94xEe_J-11" value="YES" style="text;html=1;strokeColor=none;fillColor=none;align=center;verticalAlign=middle;whiteSpace=wrap;rounded=0;" vertex="1" parent="WIyWlLk6GJQsqaUBKTNV-1">
          <mxGeometry x="104" y="460" width="60" height="30" as="geometry" />
        </mxCell>
        <mxCell id="ZzNQg0xLi2cPM94xEe_J-13" value="t = t +1&lt;br&gt;a = a + 0.75&lt;br&gt;b = b - 1.03" style="rounded=0;whiteSpace=wrap;html=1;" vertex="1" parent="WIyWlLk6GJQsqaUBKTNV-1">
          <mxGeometry x="324" y="400" width="230" height="60" as="geometry" />
        </mxCell>
        <mxCell id="ZzNQg0xLi2cPM94xEe_J-15" value="" style="endArrow=classic;html=1;rounded=0;exitX=1;exitY=0.5;exitDx=0;exitDy=0;entryX=0;entryY=0.5;entryDx=0;entryDy=0;" edge="1" parent="WIyWlLk6GJQsqaUBKTNV-1" source="ZzNQg0xLi2cPM94xEe_J-4" target="ZzNQg0xLi2cPM94xEe_J-13">
          <mxGeometry width="50" height="50" relative="1" as="geometry">
            <mxPoint x="344" y="400" as="sourcePoint" />
            <mxPoint x="394" y="350" as="targetPoint" />
          </mxGeometry>
        </mxCell>
        <mxCell id="ZzNQg0xLi2cPM94xEe_J-16" value="" style="endArrow=classic;html=1;rounded=0;exitX=0.5;exitY=0;exitDx=0;exitDy=0;" edge="1" parent="WIyWlLk6GJQsqaUBKTNV-1" source="ZzNQg0xLi2cPM94xEe_J-13">
          <mxGeometry width="50" height="50" relative="1" as="geometry">
            <mxPoint x="344" y="400" as="sourcePoint" />
            <mxPoint x="164" y="340" as="targetPoint" />
            <Array as="points">
              <mxPoint x="439" y="340" />
            </Array>
          </mxGeometry>
        </mxCell>
        <mxCell id="ZzNQg0xLi2cPM94xEe_J-18" value="NO" style="text;html=1;strokeColor=none;fillColor=none;align=center;verticalAlign=middle;whiteSpace=wrap;rounded=0;" vertex="1" parent="WIyWlLk6GJQsqaUBKTNV-1">
          <mxGeometry x="264" y="400" width="60" height="30" as="geometry" />
        </mxCell>
        <mxCell id="ZzNQg0xLi2cPM94xEe_J-19" value="&lt;h1&gt;두 사람이 만나는 시간&lt;/h1&gt;&lt;div&gt;시작&lt;/div&gt;&lt;div&gt;&lt;span style=&quot;background-color: initial;&quot;&gt;&amp;nbsp;&lt;/span&gt;&lt;br&gt;&lt;/div&gt;&lt;div&gt;h : 산의 높이를 기억할 변수 준비&lt;/div&gt;&lt;div&gt;&lt;br&gt;&lt;/div&gt;&lt;div&gt;t&amp;nbsp; : 초를 기억할 변수 준비&lt;/div&gt;&lt;div&gt;&lt;br&gt;&lt;/div&gt;&lt;div&gt;a : A의 고도를 기억할 변수 준비&lt;/div&gt;&lt;div&gt;&lt;br&gt;&lt;/div&gt;&lt;div&gt;b : B의 고도를 기억할 변수 준비&lt;/div&gt;&lt;div&gt;&lt;br&gt;&lt;/div&gt;&lt;div&gt;&lt;br&gt;&lt;/div&gt;&lt;div&gt;h = 1753&lt;/div&gt;&lt;div&gt;&lt;br&gt;&lt;/div&gt;&lt;div&gt;t&amp;nbsp; = 0&lt;/div&gt;&lt;div&gt;&lt;br&gt;&lt;/div&gt;&lt;div&gt;a = 0&lt;/div&gt;&lt;div&gt;&lt;br&gt;&lt;/div&gt;&lt;div&gt;b = 1753 ( b = h )&lt;/div&gt;&lt;div&gt;&lt;br&gt;&lt;/div&gt;&lt;div&gt;&lt;br&gt;&lt;/div&gt;&lt;div&gt;&lt;br&gt;&lt;/div&gt;&lt;div&gt;a &amp;gt;= b 인지 확인&lt;/div&gt;&lt;div&gt;&lt;br&gt;&lt;/div&gt;&lt;div&gt;&lt;br&gt;&lt;/div&gt;&lt;div&gt;참이면&amp;nbsp;&lt;/div&gt;&lt;div&gt;&lt;br&gt;&lt;/div&gt;&lt;div&gt;print t&lt;/div&gt;&lt;div&gt;&lt;br&gt;&lt;/div&gt;&lt;div&gt;&lt;br&gt;&lt;/div&gt;&lt;div&gt;거짓이면&lt;/div&gt;&lt;div&gt;&lt;br&gt;&lt;/div&gt;&lt;div&gt;t&amp;nbsp; = t + 1&lt;/div&gt;&lt;div&gt;a = a + 0.75&lt;/div&gt;&lt;div&gt;b = b - 1.03&lt;/div&gt;&lt;div&gt;&lt;br&gt;&lt;/div&gt;&lt;div&gt;다시&lt;/div&gt;&lt;div&gt;&lt;br&gt;&lt;/div&gt;&lt;div&gt;a &amp;gt;= b 인지 반복해서 확인&lt;/div&gt;&lt;div&gt;&lt;br&gt;&lt;/div&gt;&lt;div&gt;&lt;br&gt;&lt;/div&gt;&lt;div&gt;&lt;br&gt;&lt;/div&gt;&lt;div&gt;종료&lt;/div&gt;" style="text;html=1;strokeColor=default;fillColor=none;spacing=5;spacingTop=-20;whiteSpace=wrap;overflow=hidden;rounded=0;" vertex="1" parent="WIyWlLk6GJQsqaUBKTNV-1">
          <mxGeometry x="548" y="20" width="246" height="670" as="geometry" />
        </mxCell>
        <mxCell id="ZzNQg0xLi2cPM94xEe_J-21" style="edgeStyle=orthogonalEdgeStyle;rounded=0;orthogonalLoop=1;jettySize=auto;html=1;exitX=0.5;exitY=1;exitDx=0;exitDy=0;" edge="1" parent="WIyWlLk6GJQsqaUBKTNV-1" source="ZzNQg0xLi2cPM94xEe_J-19" target="ZzNQg0xLi2cPM94xEe_J-19">
          <mxGeometry relative="1" as="geometry" />
        </mxCell>
      </root>
    </mxGraphModel>
  </diagram>
</mxfile>
